<svg width="18" height="20" viewBox="0 0 18 20" fill="none" xmlns="http://www.w3.org/2000/svg">
<path d="M16.5 1.5H13.5V0H12V1.5H6V0H4.5V1.5H1.5C1.10233 1.5005 0.721085 1.65869 0.439888 1.93989C0.158691 2.22109 0.000496161 2.60233 0 3V18C0.000496161 18.3977 0.158691 18.7789 0.439888 19.0601C0.721085 19.3413 1.10233 19.4995 1.5 19.5H16.5C16.8977 19.4995 17.2789 19.3413 17.5601 19.0601C17.8413 18.7789 17.9995 18.3977 18 18V3C17.9995 2.60233 17.8413 2.22109 17.5601 1.93989C17.2789 1.65869 16.8977 1.5005 16.5 1.5ZM1.5 3H4.5V4.5H6V3H12V4.5H13.5V3H16.5V6H1.5V3ZM1.5 7.5H5.25V12H1.5V7.5ZM11.25 18H6.75V13.5H11.25V18ZM11.25 12H6.75V7.5H11.25V12ZM12.75 18V13.5H16.5L16.5009 18H12.75Z" fill="#001346"/>
</svg>
