<svg width="24" height="24" viewBox="0 0 24 24" fill="none" xmlns="http://www.w3.org/2000/svg">
<path d="M20.2498 12.6C20.2498 12.45 20.2498 12.15 20.2498 12C20.2498 11.85 20.2498 11.55 20.2498 11.4L21.7498 10.2C22.3498 9.75 22.3498 8.85 22.0498 8.25L20.2498 5.25C19.9498 4.8 19.4998 4.5 18.8998 4.5C18.7498 4.5 18.5998 4.5 18.4498 4.65L16.6498 5.25C16.3498 5.1 16.0498 4.8 15.5998 4.65L15.1498 2.7C15.1498 1.95 14.5498 1.5 13.7998 1.5H10.1998C9.44981 1.5 8.84981 1.95 8.69981 2.7L8.39981 4.65C7.94981 4.8 7.64981 4.95 7.34981 5.1L5.5498 4.5C5.39981 4.5 5.2498 4.5 5.09981 4.5C4.4998 4.5 4.0498 4.8 3.7498 5.25L1.9498 8.25C1.6498 8.85 1.7998 9.6 2.3998 10.2L3.7498 11.55C3.7498 11.7 3.7498 12 3.7498 12.15C3.7498 12.3 3.7498 12.6 3.7498 12.75L2.3998 13.8C1.7998 14.25 1.6498 15.15 2.0998 15.75L3.8998 18.75C4.0498 19.2 4.4998 19.5 5.09981 19.5C5.2498 19.5 5.39981 19.5 5.5498 19.35L7.34981 18.75C7.64981 18.9 7.94981 19.2 8.39981 19.35L8.84981 21.3C8.99981 22.05 9.59981 22.5 10.3498 22.5H13.9498C14.6998 22.5 15.2998 22.05 15.4498 21.3L15.8998 19.35C16.1998 19.2 16.4998 19.05 16.9498 18.75L18.7498 19.35C18.8998 19.35 19.0498 19.5 19.1998 19.5C19.7998 19.5 20.2498 19.2 20.5498 18.75L22.1998 15.75C22.4998 15.15 22.4998 14.4 21.8998 13.8L20.2498 12.6ZM18.8998 18L16.3498 17.1C15.7498 17.55 14.9998 18 14.2498 18.3L13.7998 21H10.1998L9.59981 18.3C8.84981 18 8.2498 17.55 7.4998 17.1L5.09981 18L3.29981 15L5.3998 13.2C5.2498 12.45 5.2498 11.55 5.3998 10.8L3.29981 9L5.09981 6L7.64981 6.9C8.2498 6.3 8.99981 6 9.74981 5.7L10.1998 3H13.7998L14.3998 5.7C15.1498 6 15.7498 6.45 16.4998 6.9L18.8998 6L20.6998 9L18.5998 10.8C18.7498 11.55 18.7498 12.45 18.5998 13.2L20.6998 15L18.8998 18Z" fill="#001346"/>
<path d="M12 16.5C9.45 16.5 7.5 14.55 7.5 12C7.5 9.45 9.45 7.5 12 7.5C14.55 7.5 16.5 9.45 16.5 12C16.5 14.4 14.55 16.5 12 16.5ZM12 9C10.35 9 9 10.2 9 11.85V12C9 13.65 10.2 15 11.85 15H12C13.65 15 15 13.8 15 12.15V12C15 10.35 13.8 9 12 9Z" fill="#001346"/>
</svg>
