<svg width="24" height="24" viewBox="0 0 24 24" fill="none" xmlns="http://www.w3.org/2000/svg">
<path d="M22.5 11.25H12.75V1.5H11.25V11.25H1.5V12.75H11.25V22.5H12.75V12.75H22.5V11.25Z" fill="#001346"/>
<path d="M19.1896 15L20.2501 16.0605L17.5606 18.75L20.2501 21.4395L19.1896 22.5L15.4396 18.75L19.1896 15ZM8.25009 22.5H2.25009C2.12223 22.5 1.99649 22.4673 1.88482 22.4051C1.77314 22.3428 1.67923 22.2531 1.61202 22.1443C1.5448 22.0355 1.5065 21.9114 1.50076 21.7837C1.49502 21.656 1.52202 21.5289 1.57921 21.4145L4.57921 15.4145C4.64844 15.2983 4.74667 15.2021 4.86427 15.1353C4.98188 15.0684 5.11482 15.0333 5.25009 15.0333C5.38535 15.0333 5.5183 15.0684 5.6359 15.1353C5.75351 15.2021 5.85173 15.2983 5.92096 15.4145L8.92096 21.4145C8.97815 21.5289 9.00516 21.656 8.99942 21.7837C8.99368 21.9114 8.95538 22.0355 8.88816 22.1443C8.82094 22.2531 8.72703 22.3428 8.61536 22.4051C8.50368 22.4673 8.37794 22.5 8.25009 22.5ZM3.46374 21H7.03644L5.25009 17.4272L3.46374 21ZM21.0001 9H16.5001C16.1024 8.99955 15.7211 8.84136 15.4399 8.56016C15.1587 8.27895 15.0005 7.89769 15.0001 7.5V3C15.0005 2.60232 15.1587 2.22105 15.4399 1.93985C15.7211 1.65864 16.1024 1.50046 16.5001 1.5H21.0001C21.3978 1.50046 21.779 1.65864 22.0602 1.93985C22.3414 2.22105 22.4996 2.60232 22.5001 3V7.5C22.4996 7.89769 22.3414 8.27895 22.0602 8.56016C21.779 8.84136 21.3978 8.99955 21.0001 9ZM16.5001 3V7.5H21.0008L21.0001 3H16.5001ZM5.25009 9C4.50841 9 3.78338 8.78007 3.1667 8.36801C2.55001 7.95596 2.06937 7.37029 1.78554 6.68506C1.50171 5.99984 1.42745 5.24584 1.57214 4.51841C1.71684 3.79098 2.07399 3.1228 2.59844 2.59835C3.12288 2.0739 3.79107 1.71675 4.5185 1.57206C5.24593 1.42736 5.99993 1.50162 6.68515 1.78545C7.37037 2.06928 7.95604 2.54993 8.3681 3.16661C8.78015 3.7833 9.00009 4.50832 9.00009 5.25C8.99892 6.2442 8.60345 7.19735 7.90044 7.90036C7.19744 8.60337 6.24429 8.99883 5.25009 9ZM5.25009 3C4.80508 3 4.37006 3.13196 4.00005 3.3792C3.63004 3.62643 3.34166 3.97783 3.17136 4.38896C3.00106 4.8001 2.9565 5.2525 3.04332 5.68895C3.13014 6.12541 3.34443 6.52632 3.6591 6.84099C3.97377 7.15566 4.37468 7.36995 4.81113 7.45677C5.24759 7.54359 5.69999 7.49903 6.11112 7.32873C6.52226 7.15843 6.87366 6.87005 7.12089 6.50003C7.36813 6.13002 7.50009 5.69501 7.50009 5.25C7.49943 4.65347 7.26217 4.08155 6.84035 3.65973C6.41854 3.23792 5.84662 3.00066 5.25009 3Z" fill="#001346"/>
</svg>
